0
SECTION
2
HEADER
9
$INSUNITS
70
4
0
ENDSEC
0
SECTION
2
ENTITIES
0
LWPOLYLINE
8
NT_PHONG_AN
90
4
70
1
10
-900
20
-450
10
900
20
-450
10
900
20
450
10
-900
20
450
0
LINE
8
NT_PHONG_AN
10
-780.6
20
850.6
30
0
11
-780.6
21
629.4
31
0
0
LINE
8
NT_PHONG_AN
10
-710.6
20
559.4
30
0
11
-525.52
21
559.4
31
0
0
LINE
8
NT_PHONG_AN
10
-455.52
20
629.4
30
0
11
-455.52
21
850.6
31
0
0
LINE
8
NT_PHONG_AN
10
-525.52
20
920.6
30
0
11
-710.6
21
920.6
31
0
0
ARC
8
NT_PHONG_AN
10
-710.6
20
629.4
30
0
40
70
50
-180
51
-90
0
ARC
8
NT_PHONG_AN
10
-525.52
20
629.4
30
0
40
70
50
-90
51
0
0
ARC
8
NT_PHONG_AN
10
-525.52
20
850.6
30
0
40
70
50
0
51
90
0
ARC
8
NT_PHONG_AN
10
-710.6
20
850.6
30
0
40
70
50
90
51
180
0
ARC
8
NT_PHONG_AN
10
-607.22
20
740
30
0
40
169.76
50
126
51
234
0
LINE
8
NT_PHONG_AN
10
-636.12
20
920.6
30
0
11
-520.54
21
920.6
31
0
0
LINE
8
NT_PHONG_AN
10
-636.12
20
559.4
30
0
11
-520.54
21
559.4
31
0
0
LINE
8
NT_PHONG_AN
10
-419.4
20
-850.6
30
0
11
-419.4
21
-629.4
31
0
0
LINE
8
NT_PHONG_AN
10
-489.4
20
-559.4
30
0
11
-674.48
21
-559.4
31
0
0
LINE
8
NT_PHONG_AN
10
-744.48
20
-629.4
30
0
11
-744.48
21
-850.6
31
0
0
LINE
8
NT_PHONG_AN
10
-674.48
20
-920.6
30
0
11
-489.4
21
-920.6
31
0
0
ARC
8
NT_PHONG_AN
10
-489.4
20
-629.4
30
0
40
70
50
0
51
90
0
ARC
8
NT_PHONG_AN
10
-674.48
20
-629.4
30
0
40
70
50
90
51
180
0
ARC
8
NT_PHONG_AN
10
-674.48
20
-850.6
30
0
40
70
50
180
51
270
0
ARC
8
NT_PHONG_AN
10
-489.4
20
-850.6
30
0
40
70
50
270
51
360
0
ARC
8
NT_PHONG_AN
10
-592.78
20
-740
30
0
40
169.76
50
306
51
414
0
LINE
8
NT_PHONG_AN
10
-563.88
20
-920.6
30
0
11
-679.46
21
-920.6
31
0
0
LINE
8
NT_PHONG_AN
10
-563.88
20
-559.4
30
0
11
-679.46
21
-559.4
31
0
0
LINE
8
NT_PHONG_AN
10
-180.6
20
850.6
30
0
11
-180.6
21
629.4
31
0
0
LINE
8
NT_PHONG_AN
10
-110.6
20
559.4
30
0
11
74.48
21
559.4
31
0
0
LINE
8
NT_PHONG_AN
10
144.48
20
629.4
30
0
11
144.48
21
850.6
31
0
0
LINE
8
NT_PHONG_AN
10
74.48
20
920.6
30
0
11
-110.6
21
920.6
31
0
0
ARC
8
NT_PHONG_AN
10
-110.6
20
629.4
30
0
40
70
50
-180
51
-90
0
ARC
8
NT_PHONG_AN
10
74.48
20
629.4
30
0
40
70
50
-90
51
0
0
ARC
8
NT_PHONG_AN
10
74.48
20
850.6
30
0
40
70
50
0
51
90
0
ARC
8
NT_PHONG_AN
10
-110.6
20
850.6
30
0
40
70
50
90
51
180
0
ARC
8
NT_PHONG_AN
10
-7.22
20
740
30
0
40
169.76
50
126
51
234
0
LINE
8
NT_PHONG_AN
10
-36.12
20
920.6
30
0
11
79.46
21
920.6
31
0
0
LINE
8
NT_PHONG_AN
10
-36.12
20
559.4
30
0
11
79.46
21
559.4
31
0
0
LINE
8
NT_PHONG_AN
10
180.6
20
-850.6
30
0
11
180.6
21
-629.4
31
0
0
LINE
8
NT_PHONG_AN
10
110.6
20
-559.4
30
0
11
-74.48
21
-559.4
31
0
0
LINE
8
NT_PHONG_AN
10
-144.48
20
-629.4
30
0
11
-144.48
21
-850.6
31
0
0
LINE
8
NT_PHONG_AN
10
-74.48
20
-920.6
30
0
11
110.6
21
-920.6
31
0
0
ARC
8
NT_PHONG_AN
10
110.6
20
-629.4
30
0
40
70
50
0
51
90
0
ARC
8
NT_PHONG_AN
10
-74.48
20
-629.4
30
0
40
70
50
90
51
180
0
ARC
8
NT_PHONG_AN
10
-74.48
20
-850.6
30
0
40
70
50
180
51
270
0
ARC
8
NT_PHONG_AN
10
110.6
20
-850.6
30
0
40
70
50
270
51
360
0
ARC
8
NT_PHONG_AN
10
7.22
20
-740
30
0
40
169.76
50
306
51
414
0
LINE
8
NT_PHONG_AN
10
36.12
20
-920.6
30
0
11
-79.46
21
-920.6
31
0
0
LINE
8
NT_PHONG_AN
10
36.12
20
-559.4
30
0
11
-79.46
21
-559.4
31
0
0
LINE
8
NT_PHONG_AN
10
419.4
20
850.6
30
0
11
419.4
21
629.4
31
0
0
LINE
8
NT_PHONG_AN
10
489.4
20
559.4
30
0
11
674.48
21
559.4
31
0
0
LINE
8
NT_PHONG_AN
10
744.48
20
629.4
30
0
11
744.48
21
850.6
31
0
0
LINE
8
NT_PHONG_AN
10
674.48
20
920.6
30
0
11
489.4
21
920.6
31
0
0
ARC
8
NT_PHONG_AN
10
489.4
20
629.4
30
0
40
70
50
-180
51
-90
0
ARC
8
NT_PHONG_AN
10
674.48
20
629.4
30
0
40
70
50
-90
51
0
0
ARC
8
NT_PHONG_AN
10
674.48
20
850.6
30
0
40
70
50
0
51
90
0
ARC
8
NT_PHONG_AN
10
489.4
20
850.6
30
0
40
70
50
90
51
180
0
ARC
8
NT_PHONG_AN
10
592.78
20
740
30
0
40
169.76
50
126
51
234
0
LINE
8
NT_PHONG_AN
10
563.88
20
920.6
30
0
11
679.46
21
920.6
31
0
0
LINE
8
NT_PHONG_AN
10
563.88
20
559.4
30
0
11
679.46
21
559.4
31
0
0
LINE
8
NT_PHONG_AN
10
780.6
20
-850.6
30
0
11
780.6
21
-629.4
31
0
0
LINE
8
NT_PHONG_AN
10
710.6
20
-559.4
30
0
11
525.52
21
-559.4
31
0
0
LINE
8
NT_PHONG_AN
10
455.52
20
-629.4
30
0
11
455.52
21
-850.6
31
0
0
LINE
8
NT_PHONG_AN
10
525.52
20
-920.6
30
0
11
710.6
21
-920.6
31
0
0
ARC
8
NT_PHONG_AN
10
710.6
20
-629.4
30
0
40
70
50
0
51
90
0
ARC
8
NT_PHONG_AN
10
525.52
20
-629.4
30
0
40
70
50
90
51
180
0
ARC
8
NT_PHONG_AN
10
525.52
20
-850.6
30
0
40
70
50
180
51
270
0
ARC
8
NT_PHONG_AN
10
710.6
20
-850.6
30
0
40
70
50
270
51
360
0
ARC
8
NT_PHONG_AN
10
607.22
20
-740
30
0
40
169.76
50
306
51
414
0
LINE
8
NT_PHONG_AN
10
636.12
20
-920.6
30
0
11
520.54
21
-920.6
31
0
0
LINE
8
NT_PHONG_AN
10
636.12
20
-559.4
30
0
11
520.54
21
-559.4
31
0
0
ENDSEC
0
EOF