0
SECTION
2
HEADER
9
$INSUNITS
70
4
0
ENDSEC
0
SECTION
2
ENTITIES
0
CIRCLE
8
NT_PHONG_AN
10
0
20
0
30
0
40
600
0
LINE
8
NT_PHONG_AN
10
1010.6
20
180.6
30
0
11
789.4
21
180.6
31
0
0
LINE
8
NT_PHONG_AN
10
719.4
20
110.6
30
0
11
719.4
21
-74.48
31
0
0
LINE
8
NT_PHONG_AN
10
789.4
20
-144.48
30
0
11
1010.6
21
-144.48
31
0
0
LINE
8
NT_PHONG_AN
10
1080.6
20
-74.48
30
0
11
1080.6
21
110.6
31
0
0
ARC
8
NT_PHONG_AN
10
789.4
20
110.6
30
0
40
70
50
90
51
180
0
ARC
8
NT_PHONG_AN
10
789.4
20
-74.48
30
0
40
70
50
180
51
270
0
ARC
8
NT_PHONG_AN
10
1010.6
20
-74.48
30
0
40
70
50
270
51
360
0
ARC
8
NT_PHONG_AN
10
1010.6
20
110.6
30
0
40
70
50
360
51
450
0
ARC
8
NT_PHONG_AN
10
900
20
7.22
30
0
40
169.76
50
396
51
504
0
LINE
8
NT_PHONG_AN
10
1080.6
20
36.12
30
0
11
1080.6
21
-79.46
31
0
0
LINE
8
NT_PHONG_AN
10
719.4
20
36.12
30
0
11
719.4
21
-79.46
31
0
0
LINE
8
NT_PHONG_AN
10
-180.6
20
1010.6
30
0
11
-180.6
21
789.4
31
0
0
LINE
8
NT_PHONG_AN
10
-110.6
20
719.4
30
0
11
74.48
21
719.4
31
0
0
LINE
8
NT_PHONG_AN
10
144.48
20
789.4
30
0
11
144.48
21
1010.6
31
0
0
LINE
8
NT_PHONG_AN
10
74.48
20
1080.6
30
0
11
-110.6
21
1080.6
31
0
0
ARC
8
NT_PHONG_AN
10
-110.6
20
789.4
30
0
40
70
50
180
51
270
0
ARC
8
NT_PHONG_AN
10
74.48
20
789.4
30
0
40
70
50
270
51
360
0
ARC
8
NT_PHONG_AN
10
74.48
20
1010.6
30
0
40
70
50
360
51
450
0
ARC
8
NT_PHONG_AN
10
-110.6
20
1010.6
30
0
40
70
50
450
51
540
0
ARC
8
NT_PHONG_AN
10
-7.22
20
900
30
0
40
169.76
50
486
51
594
0
LINE
8
NT_PHONG_AN
10
-36.12
20
1080.6
30
0
11
79.46
21
1080.6
31
0
0
LINE
8
NT_PHONG_AN
10
-36.12
20
719.4
30
0
11
79.46
21
719.4
31
0
0
LINE
8
NT_PHONG_AN
10
-1010.6
20
-180.6
30
0
11
-789.4
21
-180.6
31
0
0
LINE
8
NT_PHONG_AN
10
-719.4
20
-110.6
30
0
11
-719.4
21
74.48
31
0
0
LINE
8
NT_PHONG_AN
10
-789.4
20
144.48
30
0
11
-1010.6
21
144.48
31
0
0
LINE
8
NT_PHONG_AN
10
-1080.6
20
74.48
30
0
11
-1080.6
21
-110.6
31
0
0
ARC
8
NT_PHONG_AN
10
-789.4
20
-110.6
30
0
40
70
50
270
51
360
0
ARC
8
NT_PHONG_AN
10
-789.4
20
74.48
30
0
40
70
50
360
51
450
0
ARC
8
NT_PHONG_AN
10
-1010.6
20
74.48
30
0
40
70
50
450
51
540
0
ARC
8
NT_PHONG_AN
10
-1010.6
20
-110.6
30
0
40
70
50
540
51
630
0
ARC
8
NT_PHONG_AN
10
-900
20
-7.22
30
0
40
169.76
50
576
51
684
0
LINE
8
NT_PHONG_AN
10
-1080.6
20
-36.12
30
0
11
-1080.6
21
79.46
31
0
0
LINE
8
NT_PHONG_AN
10
-719.4
20
-36.12
30
0
11
-719.4
21
79.46
31
0
0
LINE
8
NT_PHONG_AN
10
180.6
20
-1010.6
30
0
11
180.6
21
-789.4
31
0
0
LINE
8
NT_PHONG_AN
10
110.6
20
-719.4
30
0
11
-74.48
21
-719.4
31
0
0
LINE
8
NT_PHONG_AN
10
-144.48
20
-789.4
30
0
11
-144.48
21
-1010.6
31
0
0
LINE
8
NT_PHONG_AN
10
-74.48
20
-1080.6
30
0
11
110.6
21
-1080.6
31
0
0
ARC
8
NT_PHONG_AN
10
110.6
20
-789.4
30
0
40
70
50
360
51
450
0
ARC
8
NT_PHONG_AN
10
-74.48
20
-789.4
30
0
40
70
50
450
51
540
0
ARC
8
NT_PHONG_AN
10
-74.48
20
-1010.6
30
0
40
70
50
540
51
630
0
ARC
8
NT_PHONG_AN
10
110.6
20
-1010.6
30
0
40
70
50
630
51
720
0
ARC
8
NT_PHONG_AN
10
7.22
20
-900
30
0
40
169.76
50
666
51
774
0
LINE
8
NT_PHONG_AN
10
36.12
20
-1080.6
30
0
11
-79.46
21
-1080.6
31
0
0
LINE
8
NT_PHONG_AN
10
36.12
20
-719.4
30
0
11
-79.46
21
-719.4
31
0
0
ENDSEC
0
EOF