0
SECTION
2
HEADER
9
$INSUNITS
70
4
0
ENDSEC
0
SECTION
2
ENTITIES
0
LWPOLYLINE
8
NT_PHONG_AN
90
4
70
1
10
-600
20
-375
10
600
20
-375
10
600
20
375
10
-600
20
375
0
LINE
8
NT_PHONG_AN
10
-480.6
20
775.6
30
0
11
-480.6
21
554.4
31
0
0
LINE
8
NT_PHONG_AN
10
-410.6
20
484.4
30
0
11
-225.52
21
484.4
31
0
0
LINE
8
NT_PHONG_AN
10
-155.52
20
554.4
30
0
11
-155.52
21
775.6
31
0
0
LINE
8
NT_PHONG_AN
10
-225.52
20
845.6
30
0
11
-410.6
21
845.6
31
0
0
ARC
8
NT_PHONG_AN
10
-410.6
20
554.4
30
0
40
70
50
-180
51
-90
0
ARC
8
NT_PHONG_AN
10
-225.52
20
554.4
30
0
40
70
50
-90
51
0
0
ARC
8
NT_PHONG_AN
10
-225.52
20
775.6
30
0
40
70
50
0
51
90
0
ARC
8
NT_PHONG_AN
10
-410.6
20
775.6
30
0
40
70
50
90
51
180
0
ARC
8
NT_PHONG_AN
10
-307.22
20
665
30
0
40
169.76
50
126
51
234
0
LINE
8
NT_PHONG_AN
10
-336.12
20
845.6
30
0
11
-220.54
21
845.6
31
0
0
LINE
8
NT_PHONG_AN
10
-336.12
20
484.4
30
0
11
-220.54
21
484.4
31
0
0
LINE
8
NT_PHONG_AN
10
-119.4
20
-775.6
30
0
11
-119.4
21
-554.4
31
0
0
LINE
8
NT_PHONG_AN
10
-189.4
20
-484.4
30
0
11
-374.48
21
-484.4
31
0
0
LINE
8
NT_PHONG_AN
10
-444.48
20
-554.4
30
0
11
-444.48
21
-775.6
31
0
0
LINE
8
NT_PHONG_AN
10
-374.48
20
-845.6
30
0
11
-189.4
21
-845.6
31
0
0
ARC
8
NT_PHONG_AN
10
-189.4
20
-554.4
30
0
40
70
50
0
51
90
0
ARC
8
NT_PHONG_AN
10
-374.48
20
-554.4
30
0
40
70
50
90
51
180
0
ARC
8
NT_PHONG_AN
10
-374.48
20
-775.6
30
0
40
70
50
180
51
270
0
ARC
8
NT_PHONG_AN
10
-189.4
20
-775.6
30
0
40
70
50
270
51
360
0
ARC
8
NT_PHONG_AN
10
-292.78
20
-665
30
0
40
169.76
50
306
51
414
0
LINE
8
NT_PHONG_AN
10
-263.88
20
-845.6
30
0
11
-379.46
21
-845.6
31
0
0
LINE
8
NT_PHONG_AN
10
-263.88
20
-484.4
30
0
11
-379.46
21
-484.4
31
0
0
LINE
8
NT_PHONG_AN
10
119.4
20
775.6
30
0
11
119.4
21
554.4
31
0
0
LINE
8
NT_PHONG_AN
10
189.4
20
484.4
30
0
11
374.48
21
484.4
31
0
0
LINE
8
NT_PHONG_AN
10
444.48
20
554.4
30
0
11
444.48
21
775.6
31
0
0
LINE
8
NT_PHONG_AN
10
374.48
20
845.6
30
0
11
189.4
21
845.6
31
0
0
ARC
8
NT_PHONG_AN
10
189.4
20
554.4
30
0
40
70
50
-180
51
-90
0
ARC
8
NT_PHONG_AN
10
374.48
20
554.4
30
0
40
70
50
-90
51
0
0
ARC
8
NT_PHONG_AN
10
374.48
20
775.6
30
0
40
70
50
0
51
90
0
ARC
8
NT_PHONG_AN
10
189.4
20
775.6
30
0
40
70
50
90
51
180
0
ARC
8
NT_PHONG_AN
10
292.78
20
665
30
0
40
169.76
50
126
51
234
0
LINE
8
NT_PHONG_AN
10
263.88
20
845.6
30
0
11
379.46
21
845.6
31
0
0
LINE
8
NT_PHONG_AN
10
263.88
20
484.4
30
0
11
379.46
21
484.4
31
0
0
LINE
8
NT_PHONG_AN
10
480.6
20
-775.6
30
0
11
480.6
21
-554.4
31
0
0
LINE
8
NT_PHONG_AN
10
410.6
20
-484.4
30
0
11
225.52
21
-484.4
31
0
0
LINE
8
NT_PHONG_AN
10
155.52
20
-554.4
30
0
11
155.52
21
-775.6
31
0
0
LINE
8
NT_PHONG_AN
10
225.52
20
-845.6
30
0
11
410.6
21
-845.6
31
0
0
ARC
8
NT_PHONG_AN
10
410.6
20
-554.4
30
0
40
70
50
0
51
90
0
ARC
8
NT_PHONG_AN
10
225.52
20
-554.4
30
0
40
70
50
90
51
180
0
ARC
8
NT_PHONG_AN
10
225.52
20
-775.6
30
0
40
70
50
180
51
270
0
ARC
8
NT_PHONG_AN
10
410.6
20
-775.6
30
0
40
70
50
270
51
360
0
ARC
8
NT_PHONG_AN
10
307.22
20
-665
30
0
40
169.76
50
306
51
414
0
LINE
8
NT_PHONG_AN
10
336.12
20
-845.6
30
0
11
220.54
21
-845.6
31
0
0
LINE
8
NT_PHONG_AN
10
336.12
20
-484.4
30
0
11
220.54
21
-484.4
31
0
0
ENDSEC
0
EOF