<svg viewBox="-1356.72 -1356.72 2713.44 2713.44" xmlns="http://www.w3.org/2000/svg">
  <rect x="-1356.72" y="-1356.72" width="2713.44" height="2713.44" fill="#f7f4ee" />
  <g transform="scale(1,-1)" stroke="#3d3a34" stroke-width="13.507499999999999" stroke-linejoin="round" stroke-linecap="round">
    <circle cx="0" cy="0" r="600" fill="none" />
    <line x1="1010.6" y1="180.6" x2="789.4" y2="180.6" />
    <line x1="719.4" y1="110.6" x2="719.4" y2="-74.48" />
    <line x1="789.4" y1="-144.48" x2="1010.6" y2="-144.48" />
    <line x1="1080.6" y1="-74.48" x2="1080.6" y2="110.6" />
    <path d="M789.4 180.6 L782.54 180.26 L775.74 179.25 L769.08 177.59 L762.61 175.27 L756.4 172.33 L750.51 168.8 L744.99 164.71 L739.9 160.1 L735.29 155.01 L731.2 149.49 L727.67 143.6 L724.73 137.39 L722.41 130.92 L720.75 124.26 L719.74 117.46 L719.4 110.6" fill="none" />
    <path d="M719.4 -74.48 L719.74 -81.34 L720.75 -88.14 L722.41 -94.8 L724.73 -101.27 L727.67 -107.48 L731.2 -113.37 L735.29 -118.89 L739.9 -123.98 L744.99 -128.59 L750.51 -132.68 L756.4 -136.21 L762.61 -139.15 L769.08 -141.47 L775.74 -143.13 L782.54 -144.14 L789.4 -144.48" fill="none" />
    <path d="M1010.6 -144.48 L1017.46 -144.14 L1024.26 -143.13 L1030.92 -141.47 L1037.39 -139.15 L1043.6 -136.21 L1049.49 -132.68 L1055.01 -128.59 L1060.1 -123.98 L1064.71 -118.89 L1068.8 -113.37 L1072.33 -107.48 L1075.27 -101.27 L1077.59 -94.8 L1079.25 -88.14 L1080.26 -81.34 L1080.6 -74.48" fill="none" />
    <path d="M1080.6 110.6 L1080.26 117.46 L1079.25 124.26 L1077.59 130.92 L1075.27 137.39 L1072.33 143.6 L1068.8 149.49 L1064.71 155.01 L1060.1 160.1 L1055.01 164.71 L1049.49 168.8 L1043.6 172.33 L1037.39 175.27 L1030.92 177.59 L1024.26 179.25 L1017.46 180.26 L1010.6 180.6" fill="none" />
    <path d="M1037.34 107.01 L1024.66 122.46 L1010.25 136.31 L994.32 148.38 L977.07 158.48 L958.76 166.5 L939.63 172.3 L919.95 175.81 L900 176.99 L880.05 175.81 L860.37 172.3 L841.24 166.5 L822.93 158.48 L805.68 148.38 L789.75 136.31 L775.34 122.46 L762.66 107.01" fill="none" />
    <line x1="1080.6" y1="36.12" x2="1080.6" y2="-79.46" />
    <line x1="719.4" y1="36.12" x2="719.4" y2="-79.46" />
    <line x1="-180.6" y1="1010.6" x2="-180.6" y2="789.4" />
    <line x1="-110.6" y1="719.4" x2="74.48" y2="719.4" />
    <line x1="144.48" y1="789.4" x2="144.48" y2="1010.6" />
    <line x1="74.48" y1="1080.6" x2="-110.6" y2="1080.6" />
    <path d="M-180.6 789.4 L-180.26 782.54 L-179.25 775.74 L-177.59 769.08 L-175.27 762.61 L-172.33 756.4 L-168.8 750.51 L-164.71 744.99 L-160.1 739.9 L-155.01 735.29 L-149.49 731.2 L-143.6 727.67 L-137.39 724.73 L-130.92 722.41 L-124.26 720.75 L-117.46 719.74 L-110.6 719.4" fill="none" />
    <path d="M74.48 719.4 L81.34 719.74 L88.14 720.75 L94.8 722.41 L101.27 724.73 L107.48 727.67 L113.37 731.2 L118.89 735.29 L123.98 739.9 L128.59 744.99 L132.68 750.51 L136.21 756.4 L139.15 762.61 L141.47 769.08 L143.13 775.74 L144.14 782.54 L144.48 789.4" fill="none" />
    <path d="M144.48 1010.6 L144.14 1017.46 L143.13 1024.26 L141.47 1030.92 L139.15 1037.39 L136.21 1043.6 L132.68 1049.49 L128.59 1055.01 L123.98 1060.1 L118.89 1064.71 L113.37 1068.8 L107.48 1072.33 L101.27 1075.27 L94.8 1077.59 L88.14 1079.25 L81.34 1080.26 L74.48 1080.6" fill="none" />
    <path d="M-110.6 1080.6 L-117.46 1080.26 L-124.26 1079.25 L-130.92 1077.59 L-137.39 1075.27 L-143.6 1072.33 L-149.49 1068.8 L-155.01 1064.71 L-160.1 1060.1 L-164.71 1055.01 L-168.8 1049.49 L-172.33 1043.6 L-175.27 1037.39 L-177.59 1030.92 L-179.25 1024.26 L-180.26 1017.46 L-180.6 1010.6" fill="none" />
    <path d="M-107.01 1037.34 L-122.46 1024.66 L-136.31 1010.25 L-148.38 994.32 L-158.48 977.07 L-166.5 958.76 L-172.3 939.63 L-175.81 919.95 L-176.99 900 L-175.81 880.05 L-172.3 860.37 L-166.5 841.24 L-158.48 822.93 L-148.38 805.68 L-136.31 789.75 L-122.46 775.34 L-107.01 762.66" fill="none" />
    <line x1="-36.12" y1="1080.6" x2="79.46" y2="1080.6" />
    <line x1="-36.12" y1="719.4" x2="79.46" y2="719.4" />
    <line x1="-1010.6" y1="-180.6" x2="-789.4" y2="-180.6" />
    <line x1="-719.4" y1="-110.6" x2="-719.4" y2="74.48" />
    <line x1="-789.4" y1="144.48" x2="-1010.6" y2="144.48" />
    <line x1="-1080.6" y1="74.48" x2="-1080.6" y2="-110.6" />
    <path d="M-789.4 -180.6 L-782.54 -180.26 L-775.74 -179.25 L-769.08 -177.59 L-762.61 -175.27 L-756.4 -172.33 L-750.51 -168.8 L-744.99 -164.71 L-739.9 -160.1 L-735.29 -155.01 L-731.2 -149.49 L-727.67 -143.6 L-724.73 -137.39 L-722.41 -130.92 L-720.75 -124.26 L-719.74 -117.46 L-719.4 -110.6" fill="none" />
    <path d="M-719.4 74.48 L-719.74 81.34 L-720.75 88.14 L-722.41 94.8 L-724.73 101.27 L-727.67 107.48 L-731.2 113.37 L-735.29 118.89 L-739.9 123.98 L-744.99 128.59 L-750.51 132.68 L-756.4 136.21 L-762.61 139.15 L-769.08 141.47 L-775.74 143.13 L-782.54 144.14 L-789.4 144.48" fill="none" />
    <path d="M-1010.6 144.48 L-1017.46 144.14 L-1024.26 143.13 L-1030.92 141.47 L-1037.39 139.15 L-1043.6 136.21 L-1049.49 132.68 L-1055.01 128.59 L-1060.1 123.98 L-1064.71 118.89 L-1068.8 113.37 L-1072.33 107.48 L-1075.27 101.27 L-1077.59 94.8 L-1079.25 88.14 L-1080.26 81.34 L-1080.6 74.48" fill="none" />
    <path d="M-1080.6 -110.6 L-1080.26 -117.46 L-1079.25 -124.26 L-1077.59 -130.92 L-1075.27 -137.39 L-1072.33 -143.6 L-1068.8 -149.49 L-1064.71 -155.01 L-1060.1 -160.1 L-1055.01 -164.71 L-1049.49 -168.8 L-1043.6 -172.33 L-1037.39 -175.27 L-1030.92 -177.59 L-1024.26 -179.25 L-1017.46 -180.26 L-1010.6 -180.6" fill="none" />
    <path d="M-1037.34 -107.01 L-1024.66 -122.46 L-1010.25 -136.31 L-994.32 -148.38 L-977.07 -158.48 L-958.76 -166.5 L-939.63 -172.3 L-919.95 -175.81 L-900 -176.99 L-880.05 -175.81 L-860.37 -172.3 L-841.24 -166.5 L-822.93 -158.48 L-805.68 -148.38 L-789.75 -136.31 L-775.34 -122.46 L-762.66 -107.01" fill="none" />
    <line x1="-1080.6" y1="-36.12" x2="-1080.6" y2="79.46" />
    <line x1="-719.4" y1="-36.12" x2="-719.4" y2="79.46" />
    <line x1="180.6" y1="-1010.6" x2="180.6" y2="-789.4" />
    <line x1="110.6" y1="-719.4" x2="-74.48" y2="-719.4" />
    <line x1="-144.48" y1="-789.4" x2="-144.48" y2="-1010.6" />
    <line x1="-74.48" y1="-1080.6" x2="110.6" y2="-1080.6" />
    <path d="M180.6 -789.4 L180.26 -782.54 L179.25 -775.74 L177.59 -769.08 L175.27 -762.61 L172.33 -756.4 L168.8 -750.51 L164.71 -744.99 L160.1 -739.9 L155.01 -735.29 L149.49 -731.2 L143.6 -727.67 L137.39 -724.73 L130.92 -722.41 L124.26 -720.75 L117.46 -719.74 L110.6 -719.4" fill="none" />
    <path d="M-74.48 -719.4 L-81.34 -719.74 L-88.14 -720.75 L-94.8 -722.41 L-101.27 -724.73 L-107.48 -727.67 L-113.37 -731.2 L-118.89 -735.29 L-123.98 -739.9 L-128.59 -744.99 L-132.68 -750.51 L-136.21 -756.4 L-139.15 -762.61 L-141.47 -769.08 L-143.13 -775.74 L-144.14 -782.54 L-144.48 -789.4" fill="none" />
    <path d="M-144.48 -1010.6 L-144.14 -1017.46 L-143.13 -1024.26 L-141.47 -1030.92 L-139.15 -1037.39 L-136.21 -1043.6 L-132.68 -1049.49 L-128.59 -1055.01 L-123.98 -1060.1 L-118.89 -1064.71 L-113.37 -1068.8 L-107.48 -1072.33 L-101.27 -1075.27 L-94.8 -1077.59 L-88.14 -1079.25 L-81.34 -1080.26 L-74.48 -1080.6" fill="none" />
    <path d="M110.6 -1080.6 L117.46 -1080.26 L124.26 -1079.25 L130.92 -1077.59 L137.39 -1075.27 L143.6 -1072.33 L149.49 -1068.8 L155.01 -1064.71 L160.1 -1060.1 L164.71 -1055.01 L168.8 -1049.49 L172.33 -1043.6 L175.27 -1037.39 L177.59 -1030.92 L179.25 -1024.26 L180.26 -1017.46 L180.6 -1010.6" fill="none" />
    <path d="M107.01 -1037.34 L122.46 -1024.66 L136.31 -1010.25 L148.38 -994.32 L158.48 -977.07 L166.5 -958.76 L172.3 -939.63 L175.81 -919.95 L176.99 -900 L175.81 -880.05 L172.3 -860.37 L166.5 -841.24 L158.48 -822.93 L148.38 -805.68 L136.31 -789.75 L122.46 -775.34 L107.01 -762.66" fill="none" />
    <line x1="36.12" y1="-1080.6" x2="-79.46" y2="-1080.6" />
    <line x1="36.12" y1="-719.4" x2="-79.46" y2="-719.4" />
  </g>
</svg>
