0
SECTION
2
HEADER
9
$INSUNITS
70
4
0
ENDSEC
0
SECTION
2
ENTITIES
0
LINE
8
NT_VE_SINH
10
-150
20
170
30
0
11
150
21
170
31
0
0
LINE
8
NT_VE_SINH
10
190
20
210
30
0
11
190
21
310
31
0
0
LINE
8
NT_VE_SINH
10
150
20
350
30
0
11
-150
21
350
31
0
0
LINE
8
NT_VE_SINH
10
-190
20
310
30
0
11
-190
21
210
31
0
0
ARC
8
NT_VE_SINH
10
150
20
210
30
0
40
40
50
-90
51
0
0
ARC
8
NT_VE_SINH
10
150
20
310
30
0
40
40
50
0
51
90
0
ARC
8
NT_VE_SINH
10
-150
20
310
30
0
40
40
50
90
51
180
0
ARC
8
NT_VE_SINH
10
-150
20
210
30
0
40
40
50
180
51
270
0
LWPOLYLINE
8
NT_VE_SINH
90
32
70
1
10
180
20
-110
10
176.54
20
-63.18
10
166.3
20
-18.16
10
149.66
20
23.34
10
127.28
20
59.71
10
100
20
89.55
10
68.88
20
111.73
10
35.12
20
125.39
10
0
20
130
10
-35.12
20
125.39
10
-68.88
20
111.73
10
-100
20
89.55
10
-127.28
20
59.71
10
-149.66
20
23.34
10
-166.3
20
-18.16
10
-176.54
20
-63.18
10
-180
20
-110
10
-176.54
20
-156.82
10
-166.3
20
-201.84
10
-149.66
20
-243.34
10
-127.28
20
-279.71
10
-100
20
-309.55
10
-68.88
20
-331.73
10
-35.12
20
-345.39
10
0
20
-350
10
35.12
20
-345.39
10
68.88
20
-331.73
10
100
20
-309.55
10
127.28
20
-279.71
10
149.66
20
-243.34
10
166.3
20
-201.84
10
176.54
20
-156.82
0
LWPOLYLINE
8
NT_VE_SINH
90
32
70
1
10
120
20
-100
10
117.69
20
-63.91
10
110.87
20
-29.2
10
99.78
20
2.78
10
84.85
20
30.81
10
66.67
20
53.82
10
45.92
20
70.92
10
23.41
20
81.45
10
0
20
85
10
-23.41
20
81.45
10
-45.92
20
70.92
10
-66.67
20
53.82
10
-84.85
20
30.81
10
-99.78
20
2.78
10
-110.87
20
-29.2
10
-117.69
20
-63.91
10
-120
20
-100
10
-117.69
20
-136.09
10
-110.87
20
-170.8
10
-99.78
20
-202.78
10
-84.85
20
-230.81
10
-66.67
20
-253.82
10
-45.92
20
-270.92
10
-23.41
20
-281.45
10
0
20
-285
10
23.41
20
-281.45
10
45.92
20
-270.92
10
66.67
20
-253.82
10
84.85
20
-230.81
10
99.78
20
-202.78
10
110.87
20
-170.8
10
117.69
20
-136.09
0
LINE
8
NT_VE_SINH
10
-70
20
170
30
0
11
-70
21
105
31
0
0
LINE
8
NT_VE_SINH
10
70
20
170
30
0
11
70
21
105
31
0
0
ENDSEC
0
EOF