0
SECTION
2
HEADER
9
$INSUNITS
70
4
0
ENDSEC
0
SECTION
2
ENTITIES
0
LWPOLYLINE
8
NT_VE_SINH
90
32
70
1
10
180
20
-30
10
176.54
20
18.77
10
166.3
20
65.67
10
149.66
20
108.89
10
127.28
20
146.78
10
100
20
177.87
10
68.88
20
200.97
10
35.12
20
215.2
10
0
20
220
10
-35.12
20
215.2
10
-68.88
20
200.97
10
-100
20
177.87
10
-127.28
20
146.78
10
-149.66
20
108.89
10
-166.3
20
65.67
10
-176.54
20
18.77
10
-180
20
-30
10
-176.54
20
-78.77
10
-166.3
20
-125.67
10
-149.66
20
-168.89
10
-127.28
20
-206.78
10
-100
20
-237.87
10
-68.88
20
-260.97
10
-35.12
20
-275.2
10
0
20
-280
10
35.12
20
-275.2
10
68.88
20
-260.97
10
100
20
-237.87
10
127.28
20
-206.78
10
149.66
20
-168.89
10
166.3
20
-125.67
10
176.54
20
-78.77
0
LWPOLYLINE
8
NT_VE_SINH
90
32
70
1
10
120
20
-22
10
117.69
20
16.04
10
110.87
20
52.62
10
99.78
20
86.34
10
84.85
20
115.89
10
66.67
20
140.14
10
45.92
20
158.16
10
23.41
20
169.25
10
0
20
173
10
-23.41
20
169.25
10
-45.92
20
158.16
10
-66.67
20
140.14
10
-84.85
20
115.89
10
-99.78
20
86.34
10
-110.87
20
52.62
10
-117.69
20
16.04
10
-120
20
-22
10
-117.69
20
-60.04
10
-110.87
20
-96.62
10
-99.78
20
-130.34
10
-84.85
20
-159.89
10
-66.67
20
-184.14
10
-45.92
20
-202.16
10
-23.41
20
-213.25
10
0
20
-217
10
23.41
20
-213.25
10
45.92
20
-202.16
10
66.67
20
-184.14
10
84.85
20
-159.89
10
99.78
20
-130.34
10
110.87
20
-96.62
10
117.69
20
-60.04
0
LINE
8
NT_VE_SINH
10
-65
20
210
30
0
11
65
21
210
31
0
0
LINE
8
NT_VE_SINH
10
90
20
235
30
0
11
90
21
255
31
0
0
LINE
8
NT_VE_SINH
10
65
20
280
30
0
11
-65
21
280
31
0
0
LINE
8
NT_VE_SINH
10
-90
20
255
30
0
11
-90
21
235
31
0
0
ARC
8
NT_VE_SINH
10
65
20
235
30
0
40
25
50
-90
51
0
0
ARC
8
NT_VE_SINH
10
65
20
255
30
0
40
25
50
0
51
90
0
ARC
8
NT_VE_SINH
10
-65
20
255
30
0
40
25
50
90
51
180
0
ARC
8
NT_VE_SINH
10
-65
20
235
30
0
40
25
50
180
51
270
0
ENDSEC
0
EOF