<svg viewBox="-960 -585 1920 1170" xmlns="http://www.w3.org/2000/svg">
  <rect x="-960" y="-585" width="1920" height="1170" fill="#f7f4ee" />
  <g transform="scale(1,-1)" stroke="#3d3a34" stroke-width="12" stroke-linejoin="round" stroke-linecap="round">
    <line x1="-750" y1="0" x2="-750" y2="750" />
    <path d="M0 0 L-3.61 73.51 L-14.41 146.32 L-32.29 217.71 L-57.09 287.01 L-88.56 353.55 L-126.4 416.68 L-170.24 475.79 L-219.67 530.33 L-274.21 579.76 L-333.32 623.6 L-396.45 661.44 L-462.99 692.91 L-532.29 717.71 L-603.68 735.59 L-676.49 746.39 L-750 750" fill="none" />
    <line x1="-750" y1="0" x2="0" y2="0" />
    <line x1="750" y1="0" x2="750" y2="750" />
    <path d="M750 750 L676.49 746.39 L603.68 735.59 L532.29 717.71 L462.99 692.91 L396.45 661.44 L333.32 623.6 L274.21 579.76 L219.67 530.33 L170.24 475.79 L126.4 416.68 L88.56 353.55 L57.09 287.01 L32.29 217.71 L14.41 146.32 L3.61 73.51 L0 0" fill="none" />
    <line x1="750" y1="0" x2="0" y2="0" />
  </g>
</svg>
