0
SECTION
2
HEADER
9
$INSUNITS
70
4
0
ENDSEC
0
SECTION
2
ENTITIES
0
LINE
8
NT_PHONG_KHACH
10
-960
20
-425
30
0
11
960
21
-425
31
0
0
LINE
8
NT_PHONG_KHACH
10
1050
20
-335
30
0
11
1050
21
335
31
0
0
LINE
8
NT_PHONG_KHACH
10
960
20
425
30
0
11
-960
21
425
31
0
0
LINE
8
NT_PHONG_KHACH
10
-1050
20
335
30
0
11
-1050
21
-335
31
0
0
ARC
8
NT_PHONG_KHACH
10
960
20
-335
30
0
40
90
50
-90
51
0
0
ARC
8
NT_PHONG_KHACH
10
960
20
335
30
0
40
90
50
0
51
90
0
ARC
8
NT_PHONG_KHACH
10
-960
20
335
30
0
40
90
50
90
51
180
0
ARC
8
NT_PHONG_KHACH
10
-960
20
-335
30
0
40
90
50
180
51
270
0
ARC
8
NT_PHONG_KHACH
10
0
20
1577
30
0
40
1323
50
255.6
51
284.4
0
LINE
8
NT_PHONG_KHACH
10
-976
20
-411
30
0
11
-946
21
-411
31
0
0
LINE
8
NT_PHONG_KHACH
10
-886
20
-351
30
0
11
-886
21
201
31
0
0
LINE
8
NT_PHONG_KHACH
10
-946
20
261
30
0
11
-976
21
261
31
0
0
LINE
8
NT_PHONG_KHACH
10
-1036
20
201
30
0
11
-1036
21
-351
31
0
0
ARC
8
NT_PHONG_KHACH
10
-946
20
-351
30
0
40
60
50
-90
51
0
0
ARC
8
NT_PHONG_KHACH
10
-946
20
201
30
0
40
60
50
0
51
90
0
ARC
8
NT_PHONG_KHACH
10
-976
20
201
30
0
40
60
50
90
51
180
0
ARC
8
NT_PHONG_KHACH
10
-976
20
-351
30
0
40
60
50
180
51
270
0
LINE
8
NT_PHONG_KHACH
10
946
20
-411
30
0
11
976
21
-411
31
0
0
LINE
8
NT_PHONG_KHACH
10
1036
20
-351
30
0
11
1036
21
201
31
0
0
LINE
8
NT_PHONG_KHACH
10
976
20
261
30
0
11
946
21
261
31
0
0
LINE
8
NT_PHONG_KHACH
10
886
20
201
30
0
11
886
21
-351
31
0
0
ARC
8
NT_PHONG_KHACH
10
976
20
-351
30
0
40
60
50
-90
51
0
0
ARC
8
NT_PHONG_KHACH
10
976
20
201
30
0
40
60
50
0
51
90
0
ARC
8
NT_PHONG_KHACH
10
946
20
201
30
0
40
60
50
90
51
180
0
ARC
8
NT_PHONG_KHACH
10
946
20
-351
30
0
40
60
50
180
51
270
0
LINE
8
NT_PHONG_KHACH
10
-815
20
-365
30
0
11
-385
21
-365
31
0
0
LINE
8
NT_PHONG_KHACH
10
-330
20
-310
30
0
11
-330
21
180
31
0
0
LINE
8
NT_PHONG_KHACH
10
-385
20
235
30
0
11
-815
21
235
31
0
0
LINE
8
NT_PHONG_KHACH
10
-870
20
180
30
0
11
-870
21
-310
31
0
0
ARC
8
NT_PHONG_KHACH
10
-385
20
-310
30
0
40
55
50
-90
51
0
0
ARC
8
NT_PHONG_KHACH
10
-385
20
180
30
0
40
55
50
0
51
90
0
ARC
8
NT_PHONG_KHACH
10
-815
20
180
30
0
40
55
50
90
51
180
0
ARC
8
NT_PHONG_KHACH
10
-815
20
-310
30
0
40
55
50
180
51
270
0
LINE
8
NT_PHONG_KHACH
10
-215
20
-365
30
0
11
215
21
-365
31
0
0
LINE
8
NT_PHONG_KHACH
10
270
20
-310
30
0
11
270
21
180
31
0
0
LINE
8
NT_PHONG_KHACH
10
215
20
235
30
0
11
-215
21
235
31
0
0
LINE
8
NT_PHONG_KHACH
10
-270
20
180
30
0
11
-270
21
-310
31
0
0
ARC
8
NT_PHONG_KHACH
10
215
20
-310
30
0
40
55
50
-90
51
0
0
ARC
8
NT_PHONG_KHACH
10
215
20
180
30
0
40
55
50
0
51
90
0
ARC
8
NT_PHONG_KHACH
10
-215
20
180
30
0
40
55
50
90
51
180
0
ARC
8
NT_PHONG_KHACH
10
-215
20
-310
30
0
40
55
50
180
51
270
0
LINE
8
NT_PHONG_KHACH
10
385
20
-365
30
0
11
815
21
-365
31
0
0
LINE
8
NT_PHONG_KHACH
10
870
20
-310
30
0
11
870
21
180
31
0
0
LINE
8
NT_PHONG_KHACH
10
815
20
235
30
0
11
385
21
235
31
0
0
LINE
8
NT_PHONG_KHACH
10
330
20
180
30
0
11
330
21
-310
31
0
0
ARC
8
NT_PHONG_KHACH
10
815
20
-310
30
0
40
55
50
-90
51
0
0
ARC
8
NT_PHONG_KHACH
10
815
20
180
30
0
40
55
50
0
51
90
0
ARC
8
NT_PHONG_KHACH
10
385
20
180
30
0
40
55
50
90
51
180
0
ARC
8
NT_PHONG_KHACH
10
385
20
-310
30
0
40
55
50
180
51
270
0
ENDSEC
0
EOF