0
SECTION
2
HEADER
9
$INSUNITS
70
4
0
ENDSEC
0
SECTION
2
ENTITIES
0
LINE
8
NT_PHONG_KHACH
10
-1220
20
-450
30
0
11
1220
21
-450
31
0
0
LINE
8
NT_PHONG_KHACH
10
1300
20
-370
30
0
11
1300
21
370
31
0
0
LINE
8
NT_PHONG_KHACH
10
1220
20
450
30
0
11
-1220
21
450
31
0
0
LINE
8
NT_PHONG_KHACH
10
-1300
20
370
30
0
11
-1300
21
-370
31
0
0
ARC
8
NT_PHONG_KHACH
10
1220
20
-370
30
0
40
80
50
-90
51
0
0
ARC
8
NT_PHONG_KHACH
10
1220
20
370
30
0
40
80
50
0
51
90
0
ARC
8
NT_PHONG_KHACH
10
-1220
20
370
30
0
40
80
50
90
51
180
0
ARC
8
NT_PHONG_KHACH
10
-1220
20
-370
30
0
40
80
50
180
51
270
0
LINE
8
NT_PHONG_KHACH
10
-1220
20
-1700
30
0
11
-480
21
-1700
31
0
0
LINE
8
NT_PHONG_KHACH
10
-400
20
-1620
30
0
11
-400
21
-490
31
0
0
LINE
8
NT_PHONG_KHACH
10
-480
20
-410
30
0
11
-1220
21
-410
31
0
0
LINE
8
NT_PHONG_KHACH
10
-1300
20
-490
30
0
11
-1300
21
-1620
31
0
0
ARC
8
NT_PHONG_KHACH
10
-480
20
-1620
30
0
40
80
50
-90
51
0
0
ARC
8
NT_PHONG_KHACH
10
-480
20
-490
30
0
40
80
50
0
51
90
0
ARC
8
NT_PHONG_KHACH
10
-1220
20
-490
30
0
40
80
50
90
51
180
0
ARC
8
NT_PHONG_KHACH
10
-1220
20
-1620
30
0
40
80
50
180
51
270
0
ARC
8
NT_PHONG_KHACH
10
0
20
1938
30
0
40
1664
50
262.8
51
277.2
0
LINE
8
NT_PHONG_KHACH
10
1201
20
-436
30
0
11
1231
21
-436
31
0
0
LINE
8
NT_PHONG_KHACH
10
1286
20
-381
30
0
11
1286
21
231
31
0
0
LINE
8
NT_PHONG_KHACH
10
1231
20
286
30
0
11
1201
21
286
31
0
0
LINE
8
NT_PHONG_KHACH
10
1146
20
231
30
0
11
1146
21
-381
31
0
0
ARC
8
NT_PHONG_KHACH
10
1231
20
-381
30
0
40
55
50
-90
51
0
0
ARC
8
NT_PHONG_KHACH
10
1231
20
231
30
0
40
55
50
0
51
90
0
ARC
8
NT_PHONG_KHACH
10
1201
20
231
30
0
40
55
50
90
51
180
0
ARC
8
NT_PHONG_KHACH
10
1201
20
-381
30
0
40
55
50
180
51
270
0
LINE
8
NT_PHONG_KHACH
10
-1210
20
-1640
30
0
11
-490
21
-1640
31
0
0
LINE
8
NT_PHONG_KHACH
10
-440
20
-1590
30
0
11
-440
21
-480
31
0
0
LINE
8
NT_PHONG_KHACH
10
-490
20
-430
30
0
11
-1210
21
-430
31
0
0
LINE
8
NT_PHONG_KHACH
10
-1260
20
-480
30
0
11
-1260
21
-1590
31
0
0
ARC
8
NT_PHONG_KHACH
10
-490
20
-1590
30
0
40
50
50
-90
51
0
0
ARC
8
NT_PHONG_KHACH
10
-490
20
-480
30
0
40
50
50
0
51
90
0
ARC
8
NT_PHONG_KHACH
10
-1210
20
-480
30
0
40
50
50
90
51
180
0
ARC
8
NT_PHONG_KHACH
10
-1210
20
-1590
30
0
40
50
50
180
51
270
0
LINE
8
NT_PHONG_KHACH
10
-1210
20
-395
30
0
11
-530
21
-395
31
0
0
LINE
8
NT_PHONG_KHACH
10
-480
20
-345
30
0
11
-480
21
265
31
0
0
LINE
8
NT_PHONG_KHACH
10
-530
20
315
30
0
11
-1210
21
315
31
0
0
LINE
8
NT_PHONG_KHACH
10
-1260
20
265
30
0
11
-1260
21
-345
31
0
0
ARC
8
NT_PHONG_KHACH
10
-530
20
-345
30
0
40
50
50
-90
51
0
0
ARC
8
NT_PHONG_KHACH
10
-530
20
265
30
0
40
50
50
0
51
90
0
ARC
8
NT_PHONG_KHACH
10
-1210
20
265
30
0
40
50
50
90
51
180
0
ARC
8
NT_PHONG_KHACH
10
-1210
20
-345
30
0
40
50
50
180
51
270
0
LINE
8
NT_PHONG_KHACH
10
-390
20
-395
30
0
11
310
21
-395
31
0
0
LINE
8
NT_PHONG_KHACH
10
360
20
-345
30
0
11
360
21
265
31
0
0
LINE
8
NT_PHONG_KHACH
10
310
20
315
30
0
11
-390
21
315
31
0
0
LINE
8
NT_PHONG_KHACH
10
-440
20
265
30
0
11
-440
21
-345
31
0
0
ARC
8
NT_PHONG_KHACH
10
310
20
-345
30
0
40
50
50
-90
51
0
0
ARC
8
NT_PHONG_KHACH
10
310
20
265
30
0
40
50
50
0
51
90
0
ARC
8
NT_PHONG_KHACH
10
-390
20
265
30
0
40
50
50
90
51
180
0
ARC
8
NT_PHONG_KHACH
10
-390
20
-345
30
0
40
50
50
180
51
270
0
ENDSEC
0
EOF