0
SECTION
2
HEADER
9
$INSUNITS
70
4
0
ENDSEC
0
SECTION
2
ENTITIES
0
LINE
8
NT_PHONG_KHACH
10
-710
20
-425
30
0
11
710
21
-425
31
0
0
LINE
8
NT_PHONG_KHACH
10
800
20
-335
30
0
11
800
21
335
31
0
0
LINE
8
NT_PHONG_KHACH
10
710
20
425
30
0
11
-710
21
425
31
0
0
LINE
8
NT_PHONG_KHACH
10
-800
20
335
30
0
11
-800
21
-335
31
0
0
ARC
8
NT_PHONG_KHACH
10
710
20
-335
30
0
40
90
50
-90
51
0
0
ARC
8
NT_PHONG_KHACH
10
710
20
335
30
0
40
90
50
0
51
90
0
ARC
8
NT_PHONG_KHACH
10
-710
20
335
30
0
40
90
50
90
51
180
0
ARC
8
NT_PHONG_KHACH
10
-710
20
-335
30
0
40
90
50
180
51
270
0
ARC
8
NT_PHONG_KHACH
10
0
20
1267
30
0
40
1008
50
255.6
51
284.4
0
LINE
8
NT_PHONG_KHACH
10
-726
20
-411
30
0
11
-696
21
-411
31
0
0
LINE
8
NT_PHONG_KHACH
10
-636
20
-351
30
0
11
-636
21
201
31
0
0
LINE
8
NT_PHONG_KHACH
10
-696
20
261
30
0
11
-726
21
261
31
0
0
LINE
8
NT_PHONG_KHACH
10
-786
20
201
30
0
11
-786
21
-351
31
0
0
ARC
8
NT_PHONG_KHACH
10
-696
20
-351
30
0
40
60
50
-90
51
0
0
ARC
8
NT_PHONG_KHACH
10
-696
20
201
30
0
40
60
50
0
51
90
0
ARC
8
NT_PHONG_KHACH
10
-726
20
201
30
0
40
60
50
90
51
180
0
ARC
8
NT_PHONG_KHACH
10
-726
20
-351
30
0
40
60
50
180
51
270
0
LINE
8
NT_PHONG_KHACH
10
696
20
-411
30
0
11
726
21
-411
31
0
0
LINE
8
NT_PHONG_KHACH
10
786
20
-351
30
0
11
786
21
201
31
0
0
LINE
8
NT_PHONG_KHACH
10
726
20
261
30
0
11
696
21
261
31
0
0
LINE
8
NT_PHONG_KHACH
10
636
20
201
30
0
11
636
21
-351
31
0
0
ARC
8
NT_PHONG_KHACH
10
726
20
-351
30
0
40
60
50
-90
51
0
0
ARC
8
NT_PHONG_KHACH
10
726
20
201
30
0
40
60
50
0
51
90
0
ARC
8
NT_PHONG_KHACH
10
696
20
201
30
0
40
60
50
90
51
180
0
ARC
8
NT_PHONG_KHACH
10
696
20
-351
30
0
40
60
50
180
51
270
0
LINE
8
NT_PHONG_KHACH
10
-565
20
-365
30
0
11
-85
21
-365
31
0
0
LINE
8
NT_PHONG_KHACH
10
-30
20
-310
30
0
11
-30
21
180
31
0
0
LINE
8
NT_PHONG_KHACH
10
-85
20
235
30
0
11
-565
21
235
31
0
0
LINE
8
NT_PHONG_KHACH
10
-620
20
180
30
0
11
-620
21
-310
31
0
0
ARC
8
NT_PHONG_KHACH
10
-85
20
-310
30
0
40
55
50
-90
51
0
0
ARC
8
NT_PHONG_KHACH
10
-85
20
180
30
0
40
55
50
0
51
90
0
ARC
8
NT_PHONG_KHACH
10
-565
20
180
30
0
40
55
50
90
51
180
0
ARC
8
NT_PHONG_KHACH
10
-565
20
-310
30
0
40
55
50
180
51
270
0
LINE
8
NT_PHONG_KHACH
10
85
20
-365
30
0
11
565
21
-365
31
0
0
LINE
8
NT_PHONG_KHACH
10
620
20
-310
30
0
11
620
21
180
31
0
0
LINE
8
NT_PHONG_KHACH
10
565
20
235
30
0
11
85
21
235
31
0
0
LINE
8
NT_PHONG_KHACH
10
30
20
180
30
0
11
30
21
-310
31
0
0
ARC
8
NT_PHONG_KHACH
10
565
20
-310
30
0
40
55
50
-90
51
0
0
ARC
8
NT_PHONG_KHACH
10
565
20
180
30
0
40
55
50
0
51
90
0
ARC
8
NT_PHONG_KHACH
10
85
20
180
30
0
40
55
50
90
51
180
0
ARC
8
NT_PHONG_KHACH
10
85
20
-310
30
0
40
55
50
180
51
270
0
ENDSEC
0
EOF