0
SECTION
2
HEADER
9
$INSUNITS
70
4
0
ENDSEC
0
SECTION
2
ENTITIES
0
LINE
8
NT_PHONG_KHACH
10
-220
20
-290
30
0
11
220
21
-290
31
0
0
LINE
8
NT_PHONG_KHACH
10
315
20
-195
30
0
11
315
21
195
31
0
0
LINE
8
NT_PHONG_KHACH
10
220
20
290
30
0
11
-220
21
290
31
0
0
LINE
8
NT_PHONG_KHACH
10
-315
20
195
30
0
11
-315
21
-195
31
0
0
ARC
8
NT_PHONG_KHACH
10
220
20
-195
30
0
40
95
50
-90
51
0
0
ARC
8
NT_PHONG_KHACH
10
220
20
195
30
0
40
95
50
0
51
90
0
ARC
8
NT_PHONG_KHACH
10
-220
20
195
30
0
40
95
50
90
51
180
0
ARC
8
NT_PHONG_KHACH
10
-220
20
-195
30
0
40
95
50
180
51
270
0
ARC
8
NT_PHONG_KHACH
10
0
20
821.5
30
0
40
680.4
50
263.34
51
276.66
0
LINE
8
NT_PHONG_KHACH
10
-200
20
-235
30
0
11
-200
21
160
31
0
0
LINE
8
NT_PHONG_KHACH
10
200
20
-235
30
0
11
200
21
160
31
0
0
ARC
8
NT_PHONG_KHACH
10
0
20
218.6
30
0
40
472.5
50
259.2
51
280.8
0
ENDSEC
0
EOF