0
SECTION
2
HEADER
9
$INSUNITS
70
4
0
ENDSEC
0
SECTION
2
ENTITIES
0
LINE
8
NT_VAN_PHONG
10
-670
20
-350
30
0
11
670
21
-350
31
0
0
LINE
8
NT_VAN_PHONG
10
700
20
-320
30
0
11
700
21
320
31
0
0
LINE
8
NT_VAN_PHONG
10
670
20
350
30
0
11
-670
21
350
31
0
0
LINE
8
NT_VAN_PHONG
10
-700
20
320
30
0
11
-700
21
-320
31
0
0
ARC
8
NT_VAN_PHONG
10
670
20
-320
30
0
40
30
50
-90
51
0
0
ARC
8
NT_VAN_PHONG
10
670
20
320
30
0
40
30
50
0
51
90
0
ARC
8
NT_VAN_PHONG
10
-670
20
320
30
0
40
30
50
90
51
180
0
ARC
8
NT_VAN_PHONG
10
-670
20
-320
30
0
40
30
50
180
51
270
0
LINE
8
NT_VAN_PHONG
10
-602
20
-230
30
0
11
-218
21
-230
31
0
0
LINE
8
NT_VAN_PHONG
10
-200
20
-212
30
0
11
-200
21
252
31
0
0
LINE
8
NT_VAN_PHONG
10
-218
20
270
30
0
11
-602
21
270
31
0
0
LINE
8
NT_VAN_PHONG
10
-620
20
252
30
0
11
-620
21
-212
31
0
0
ARC
8
NT_VAN_PHONG
10
-218
20
-212
30
0
40
18
50
-90
51
0
0
ARC
8
NT_VAN_PHONG
10
-218
20
252
30
0
40
18
50
0
51
90
0
ARC
8
NT_VAN_PHONG
10
-602
20
252
30
0
40
18
50
90
51
180
0
ARC
8
NT_VAN_PHONG
10
-602
20
-212
30
0
40
18
50
180
51
270
0
ENDSEC
0
EOF