0
SECTION
2
HEADER
9
$INSUNITS
70
4
0
ENDSEC
0
SECTION
2
ENTITIES
0
LINE
8
NT_VAN_PHONG
10
-570
20
-300
30
0
11
570
21
-300
31
0
0
LINE
8
NT_VAN_PHONG
10
600
20
-270
30
0
11
600
21
270
31
0
0
LINE
8
NT_VAN_PHONG
10
570
20
300
30
0
11
-570
21
300
31
0
0
LINE
8
NT_VAN_PHONG
10
-600
20
270
30
0
11
-600
21
-270
31
0
0
ARC
8
NT_VAN_PHONG
10
570
20
-270
30
0
40
30
50
-90
51
0
0
ARC
8
NT_VAN_PHONG
10
570
20
270
30
0
40
30
50
0
51
90
0
ARC
8
NT_VAN_PHONG
10
-570
20
270
30
0
40
30
50
90
51
180
0
ARC
8
NT_VAN_PHONG
10
-570
20
-270
30
0
40
30
50
180
51
270
0
LINE
8
NT_VAN_PHONG
10
-502
20
-220
30
0
11
-154
21
-220
31
0
0
LINE
8
NT_VAN_PHONG
10
-136
20
-202
30
0
11
-136
21
202
31
0
0
LINE
8
NT_VAN_PHONG
10
-154
20
220
30
0
11
-502
21
220
31
0
0
LINE
8
NT_VAN_PHONG
10
-520
20
202
30
0
11
-520
21
-202
31
0
0
ARC
8
NT_VAN_PHONG
10
-154
20
-202
30
0
40
18
50
-90
51
0
0
ARC
8
NT_VAN_PHONG
10
-154
20
202
30
0
40
18
50
0
51
90
0
ARC
8
NT_VAN_PHONG
10
-502
20
202
30
0
40
18
50
90
51
180
0
ARC
8
NT_VAN_PHONG
10
-502
20
-202
30
0
40
18
50
180
51
270
0
ENDSEC
0
EOF