0
SECTION
2
HEADER
9
$INSUNITS
70
4
0
ENDSEC
0
SECTION
2
ENTITIES
0
LINE
8
NT_VAN_PHONG
10
-160
20
-230
30
0
11
160
21
-230
31
0
0
LINE
8
NT_VAN_PHONG
10
240
20
-150
30
0
11
240
21
150
31
0
0
LINE
8
NT_VAN_PHONG
10
160
20
230
30
0
11
-160
21
230
31
0
0
LINE
8
NT_VAN_PHONG
10
-240
20
150
30
0
11
-240
21
-150
31
0
0
ARC
8
NT_VAN_PHONG
10
160
20
-150
30
0
40
80
50
-90
51
0
0
ARC
8
NT_VAN_PHONG
10
160
20
150
30
0
40
80
50
0
51
90
0
ARC
8
NT_VAN_PHONG
10
-160
20
150
30
0
40
80
50
90
51
180
0
ARC
8
NT_VAN_PHONG
10
-160
20
-150
30
0
40
80
50
180
51
270
0
ARC
8
NT_VAN_PHONG
10
0
20
-39.87
30
0
40
260.13
50
-142.01
51
-37.99
0
LINE
8
NT_VAN_PHONG
10
-273
20
-120
30
0
11
-262
21
-120
31
0
0
LINE
8
NT_VAN_PHONG
10
-240
20
-98
30
0
11
-240
21
98
31
0
0
LINE
8
NT_VAN_PHONG
10
-262
20
120
30
0
11
-273
21
120
31
0
0
LINE
8
NT_VAN_PHONG
10
-295
20
98
30
0
11
-295
21
-98
31
0
0
ARC
8
NT_VAN_PHONG
10
-262
20
-98
30
0
40
22
50
-90
51
0
0
ARC
8
NT_VAN_PHONG
10
-262
20
98
30
0
40
22
50
0
51
90
0
ARC
8
NT_VAN_PHONG
10
-273
20
98
30
0
40
22
50
90
51
180
0
ARC
8
NT_VAN_PHONG
10
-273
20
-98
30
0
40
22
50
180
51
270
0
LINE
8
NT_VAN_PHONG
10
262
20
-120
30
0
11
273
21
-120
31
0
0
LINE
8
NT_VAN_PHONG
10
295
20
-98
30
0
11
295
21
98
31
0
0
LINE
8
NT_VAN_PHONG
10
273
20
120
30
0
11
262
21
120
31
0
0
LINE
8
NT_VAN_PHONG
10
240
20
98
30
0
11
240
21
-98
31
0
0
ARC
8
NT_VAN_PHONG
10
273
20
-98
30
0
40
22
50
-90
51
0
0
ARC
8
NT_VAN_PHONG
10
273
20
98
30
0
40
22
50
0
51
90
0
ARC
8
NT_VAN_PHONG
10
262
20
98
30
0
40
22
50
90
51
180
0
ARC
8
NT_VAN_PHONG
10
262
20
-98
30
0
40
22
50
180
51
270
0
ENDSEC
0
EOF