0
SECTION
2
HEADER
9
$INSUNITS
70
4
0
ENDSEC
0
SECTION
2
ENTITIES
0
LINE
8
NT_VAN_PHONG
10
-582
20
-225
30
0
11
582
21
-225
31
0
0
LINE
8
NT_VAN_PHONG
10
600
20
-207
30
0
11
600
21
207
31
0
0
LINE
8
NT_VAN_PHONG
10
582
20
225
30
0
11
-582
21
225
31
0
0
LINE
8
NT_VAN_PHONG
10
-600
20
207
30
0
11
-600
21
-207
31
0
0
ARC
8
NT_VAN_PHONG
10
582
20
-207
30
0
40
18
50
-90
51
0
0
ARC
8
NT_VAN_PHONG
10
582
20
207
30
0
40
18
50
0
51
90
0
ARC
8
NT_VAN_PHONG
10
-582
20
207
30
0
40
18
50
90
51
180
0
ARC
8
NT_VAN_PHONG
10
-582
20
-207
30
0
40
18
50
180
51
270
0
LINE
8
NT_VAN_PHONG
10
-600
20
-180
30
0
11
600
21
-180
31
0
0
LINE
8
NT_VAN_PHONG
10
-200
20
-225
30
0
11
-200
21
225
31
0
0
LINE
8
NT_VAN_PHONG
10
200
20
-225
30
0
11
200
21
225
31
0
0
ENDSEC
0
EOF