0
SECTION
2
HEADER
9
$INSUNITS
70
4
0
ENDSEC
0
SECTION
2
ENTITIES
0
LINE
8
NT_VAN_PHONG
10
-575
20
-30
30
0
11
575
21
-30
31
0
0
LINE
8
NT_VAN_PHONG
10
600
20
-5
30
0
11
600
21
5
31
0
0
LINE
8
NT_VAN_PHONG
10
575
20
30
30
0
11
-575
21
30
31
0
0
LINE
8
NT_VAN_PHONG
10
-600
20
5
30
0
11
-600
21
-5
31
0
0
ARC
8
NT_VAN_PHONG
10
575
20
-5
30
0
40
25
50
-90
51
0
0
ARC
8
NT_VAN_PHONG
10
575
20
5
30
0
40
25
50
0
51
90
0
ARC
8
NT_VAN_PHONG
10
-575
20
5
30
0
40
25
50
90
51
180
0
ARC
8
NT_VAN_PHONG
10
-575
20
-5
30
0
40
25
50
180
51
270
0
ENDSEC
0
EOF