<svg viewBox="-780 -210 1560 420" xmlns="http://www.w3.org/2000/svg">
  <rect x="-780" y="-210" width="1560" height="420" fill="#f7f4ee" />
  <g transform="scale(1,-1)" stroke="#3d3a34" stroke-width="12" stroke-linejoin="round" stroke-linecap="round">
    <line x1="-575" y1="-30" x2="575" y2="-30" />
    <line x1="600" y1="-5" x2="600" y2="5" />
    <line x1="575" y1="30" x2="-575" y2="30" />
    <line x1="-600" y1="5" x2="-600" y2="-5" />
    <path d="M575 -30 L577.45 -29.88 L579.88 -29.52 L582.26 -28.92 L584.57 -28.1 L586.78 -27.05 L588.89 -25.79 L590.86 -24.33 L592.68 -22.68 L594.33 -20.86 L595.79 -18.89 L597.05 -16.78 L598.1 -14.57 L598.92 -12.26 L599.52 -9.88 L599.88 -7.45 L600 -5" fill="none" />
    <path d="M600 5 L599.88 7.45 L599.52 9.88 L598.92 12.26 L598.1 14.57 L597.05 16.78 L595.79 18.89 L594.33 20.86 L592.68 22.68 L590.86 24.33 L588.89 25.79 L586.78 27.05 L584.57 28.1 L582.26 28.92 L579.88 29.52 L577.45 29.88 L575 30" fill="none" />
    <path d="M-575 30 L-577.45 29.88 L-579.88 29.52 L-582.26 28.92 L-584.57 28.1 L-586.78 27.05 L-588.89 25.79 L-590.86 24.33 L-592.68 22.68 L-594.33 20.86 L-595.79 18.89 L-597.05 16.78 L-598.1 14.57 L-598.92 12.26 L-599.52 9.88 L-599.88 7.45 L-600 5" fill="none" />
    <path d="M-600 -5 L-599.88 -7.45 L-599.52 -9.88 L-598.92 -12.26 L-598.1 -14.57 L-597.05 -16.78 L-595.79 -18.89 L-594.33 -20.86 L-592.68 -22.68 L-590.86 -24.33 L-588.89 -25.79 L-586.78 -27.05 L-584.57 -28.1 L-582.26 -28.92 L-579.88 -29.52 L-577.45 -29.88 L-575 -30" fill="none" />
  </g>
</svg>
