<svg viewBox="-480 -480 960 960" xmlns="http://www.w3.org/2000/svg">
  <rect x="-480" y="-480" width="960" height="960" fill="#f7f4ee" />
  <g transform="scale(1,-1)" stroke="#3d3a34" stroke-width="12" stroke-linejoin="round" stroke-linecap="round">
    <circle cx="0" cy="0" r="122.5" fill="none" />
    <circle cx="0" cy="0" r="350" fill="none" />
    <path d="M262.5 0 L262.45 5.26 L262.29 10.52 L262.03 15.77 L261.66 21.01 L261.18 26.25 L260.61 31.48 L259.92 36.69 L259.14 41.89 L258.24 47.08 L257.25 52.24 L256.15 57.39 L254.95 62.51 L253.65 67.6 L252.24 72.67 L250.73 77.71 L249.13 82.72" fill="none" />
    <path d="M163.67 205.23 L159.52 208.47 L155.31 211.62 L151.04 214.69 L146.71 217.67 L142.32 220.57 L137.87 223.38 L133.37 226.09 L128.81 228.72 L124.21 231.26 L119.55 233.7 L114.84 236.05 L110.09 238.3 L105.29 240.46 L100.45 242.52 L95.58 244.48 L90.66 246.35" fill="none" />
    <path d="M-58.41 255.92 L-63.53 254.7 L-68.62 253.37 L-73.68 251.95 L-78.71 250.42 L-83.71 248.79 L-88.68 247.07 L-93.61 245.24 L-98.51 243.32 L-103.36 241.29 L-108.18 239.17 L-112.95 236.96 L-117.67 234.65 L-122.35 232.24 L-126.98 229.75 L-131.55 227.16 L-136.08 224.47" fill="none" />
    <path d="M-236.5 113.89 L-238.74 109.13 L-240.88 104.33 L-242.92 99.48 L-244.86 94.6 L-246.71 89.67 L-248.46 84.71 L-250.1 79.72 L-251.65 74.69 L-253.1 69.63 L-254.44 64.55 L-255.68 59.44 L-256.82 54.3 L-257.86 49.15 L-258.79 43.97 L-259.62 38.78 L-260.34 33.57" fill="none" />
    <path d="M-236.5 -113.89 L-234.18 -118.61 L-231.75 -123.28 L-229.24 -127.9 L-226.63 -132.46 L-223.93 -136.98 L-221.14 -141.44 L-218.26 -145.84 L-215.3 -150.18 L-212.24 -154.46 L-209.11 -158.68 L-205.88 -162.84 L-202.58 -166.93 L-199.2 -170.96 L-195.73 -174.92 L-192.19 -178.8 L-188.57 -182.62" fill="none" />
    <path d="M-58.41 -255.92 L-53.27 -257.04 L-48.11 -258.05 L-42.93 -258.97 L-37.74 -259.77 L-32.52 -260.48 L-27.3 -261.08 L-22.06 -261.57 L-16.82 -261.96 L-11.57 -262.25 L-6.31 -262.42 L-1.05 -262.5 L4.21 -262.47 L9.46 -262.33 L14.72 -262.09 L19.97 -261.74 L25.21 -261.29" fill="none" />
    <path d="M163.67 -205.23 L167.74 -201.91 L171.76 -198.51 L175.7 -195.03 L179.57 -191.47 L183.37 -187.83 L187.1 -184.12 L190.75 -180.34 L194.32 -176.48 L197.82 -172.55 L201.24 -168.55 L204.57 -164.49 L207.83 -160.36 L211 -156.16 L214.08 -151.9 L217.08 -147.58 L220 -143.2" fill="none" />
  </g>
</svg>
