0
SECTION
2
HEADER
9
$INSUNITS
70
4
0
ENDSEC
0
SECTION
2
ENTITIES
0
CIRCLE
8
NT_CAY_CANH
10
0
20
0
30
0
40
119
0
LWPOLYLINE
8
NT_CAY_CANH
90
9
70
1
10
335.14
20
0
10
259.36
20
217.63
10
62.89
20
356.67
10
-174.12
20
301.58
10
-291.17
20
105.98
10
-297.74
20
-108.37
10
-163.34
20
-282.91
10
54.48
20
-308.97
10
247.05
20
-207.3
0
LWPOLYLINE
8
NT_CAY_CANH
90
8
70
1
10
195.28
20
0
10
142.28
20
142.28
10
0
20
211.61
10
-139.04
20
139.04
10
-204.97
20
0
10
-170.28
20
-170.28
10
0
20
-237.89
10
149.26
20
-149.26
0
ARC
8
NT_CAY_CANH
10
-46.7
20
94.04
30
0
40
175
50
76.3
51
156.52
0
ARC
8
NT_CAY_CANH
10
101.87
20
-25.44
30
0
40
175
50
305.87
51
386.09
0
ARC
8
NT_CAY_CANH
10
-23.48
20
-102.34
30
0
40
175
50
216.97
51
297.18
0
ENDSEC
0
EOF