0
SECTION
2
HEADER
9
$INSUNITS
70
4
0
ENDSEC
0
SECTION
2
ENTITIES
0
CIRCLE
8
NT_CAY_CANH
10
0
20
0
30
0
40
68
0
LWPOLYLINE
8
NT_CAY_CANH
90
7
70
1
10
167.05
20
0
10
111.2
20
139.44
10
-42.93
20
188.09
10
-167.46
20
80.64
10
-181.82
20
-87.56
10
-47.33
20
-207.37
10
119.74
20
-150.15
0
LWPOLYLINE
8
NT_CAY_CANH
90
7
70
1
10
120.41
20
0
10
74.65
20
93.61
10
-23.8
20
104.29
10
-93.53
20
45.04
10
-105.73
20
-50.92
10
-28.19
20
-123.49
10
74.86
20
-93.87
0
ARC
8
NT_CAY_CANH
10
-29.06
20
52.49
30
0
40
100
50
78.86
51
159.08
0
ARC
8
NT_CAY_CANH
10
59.95
20
-2.39
30
0
40
100
50
317.61
51
397.82
0
ENDSEC
0
EOF