<svg viewBox="-300 -300 600 600" xmlns="http://www.w3.org/2000/svg">
  <rect x="-300" y="-300" width="600" height="600" fill="#f7f4ee" />
  <g transform="scale(1,-1)" stroke="#3d3a34" stroke-width="12" stroke-linejoin="round" stroke-linecap="round">
    <circle cx="0" cy="0" r="70" fill="none" />
    <circle cx="0" cy="0" r="200" fill="none" />
    <path d="M150 0 L149.94 4.21 L149.76 8.41 L149.47 12.61 L149.06 16.79 L148.53 20.97 L147.88 25.13 L147.12 29.26 L146.24 33.38 L145.25 37.47 L144.14 41.53 L142.92 45.55 L141.58 49.54 L140.14 53.49 L138.58 57.4 L136.92 61.27 L135.15 65.08" fill="none" />
    <path d="M46.35 142.66 L42.33 143.9 L38.28 145.03 L34.2 146.05 L30.09 146.95 L25.96 147.74 L21.8 148.41 L17.63 148.96 L13.45 149.4 L9.25 149.71 L5.05 149.92 L0.84 150 L-3.37 149.96 L-7.57 149.81 L-11.77 149.54 L-15.96 149.15 L-20.13 148.64" fill="none" />
    <path d="M-121.35 88.17 L-123.78 84.73 L-126.11 81.22 L-128.33 77.66 L-130.46 74.03 L-132.49 70.34 L-134.41 66.59 L-136.22 62.8 L-137.93 58.95 L-139.53 55.06 L-141.02 51.13 L-142.4 47.15 L-143.66 43.14 L-144.82 39.09 L-145.86 35.02 L-146.78 30.91 L-147.59 26.78" fill="none" />
    <path d="M-121.35 -88.17 L-118.83 -91.54 L-116.22 -94.83 L-113.51 -98.06 L-110.72 -101.2 L-107.84 -104.27 L-104.87 -107.25 L-101.82 -110.15 L-98.69 -112.96 L-95.48 -115.68 L-92.2 -118.32 L-88.85 -120.86 L-85.42 -123.3 L-81.93 -125.65 L-78.37 -127.9 L-74.76 -130.04 L-71.08 -132.09" fill="none" />
    <path d="M46.35 -142.66 L50.34 -141.3 L54.28 -139.84 L58.18 -138.26 L62.03 -136.57 L65.84 -134.78 L69.59 -132.88 L73.29 -130.87 L76.93 -128.77 L80.52 -126.56 L84.03 -124.25 L87.49 -121.85 L90.87 -119.34 L94.18 -116.75 L97.42 -114.06 L100.58 -111.28 L103.66 -108.42" fill="none" />
  </g>
</svg>
