0
SECTION
2
HEADER
9
$INSUNITS
70
4
0
ENDSEC
0
SECTION
2
ENTITIES
0
LWPOLYLINE
8
NT_CAY_CANH
90
13
70
1
10
796.42
20
0
10
792.76
20
416.07
10
573.49
20
830.84
10
119.36
20
983.03
10
-307.91
20
811.89
10
-607.89
20
538.54
10
-807.07
20
198.93
10
-836.8
20
-206.25
10
-660.89
20
-585.5
10
-315.96
20
-833.13
10
103.86
20
-855.36
10
460.05
20
-666.5
10
687.17
20
-360.65
0
LWPOLYLINE
8
NT_CAY_CANH
90
11
70
1
10
627.83
20
0
10
489.72
20
314.73
10
228.73
20
500.86
10
-82.8
20
575.89
10
-440.57
20
508.45
10
-702.42
20
206.25
10
-680.4
20
-199.78
10
-411.68
20
-475.1
10
-81.4
20
-566.13
10
248.7
20
-544.57
10
536.83
20
-345
0
LWPOLYLINE
8
NT_CAY_CANH
90
9
70
1
10
357.25
20
0
10
236.57
20
198.51
10
47.76
20
270.84
10
-148.04
20
256.42
10
-304.1
20
110.69
10
-278.9
20
-101.51
10
-127.99
20
-221.69
10
48.33
20
-274.1
10
264.76
20
-222.16
0
CIRCLE
8
NT_CAY_CANH
10
0
20
0
30
0
40
81
0
ENDSEC
0
EOF