0
SECTION
2
HEADER
9
$INSUNITS
70
4
0
ENDSEC
0
SECTION
2
ENTITIES
0
LWPOLYLINE
8
NT_XE
90
9
70
1
10
-2040
20
-900
10
1880
20
-900
10
2240
20
-570
10
2300
20
0
10
2240
20
570
10
1880
20
900
10
-2040
20
900
10
-2300
20
600
10
-2300
20
-600
0
LINE
8
NT_XE
10
-1010
20
-710
30
0
11
610
21
-710
31
0
0
LINE
8
NT_XE
10
850
20
-470
30
0
11
850
21
470
31
0
0
LINE
8
NT_XE
10
610
20
710
30
0
11
-1010
21
710
31
0
0
LINE
8
NT_XE
10
-1250
20
470
30
0
11
-1250
21
-470
31
0
0
ARC
8
NT_XE
10
610
20
-470
30
0
40
240
50
-90
51
0
0
ARC
8
NT_XE
10
610
20
470
30
0
40
240
50
0
51
90
0
ARC
8
NT_XE
10
-1010
20
470
30
0
40
240
50
90
51
180
0
ARC
8
NT_XE
10
-1010
20
-470
30
0
40
240
50
180
51
270
0
ARC
8
NT_XE
10
850
20
0
30
0
40
620
50
-57.3
51
57.3
0
ARC
8
NT_XE
10
-1250
20
0
30
0
40
520
50
122.7
51
237.3
0
ENDSEC
0
EOF