0
SECTION
2
HEADER
9
$INSUNITS
70
4
0
ENDSEC
0
SECTION
2
ENTITIES
0
LINE
8
NT_XE
10
-2090
20
-975
30
0
11
2090
21
-975
31
0
0
LINE
8
NT_XE
10
2350
20
-715
30
0
11
2350
21
715
31
0
0
LINE
8
NT_XE
10
2090
20
975
30
0
11
-2090
21
975
31
0
0
LINE
8
NT_XE
10
-2350
20
715
30
0
11
-2350
21
-715
31
0
0
ARC
8
NT_XE
10
2090
20
-715
30
0
40
260
50
-90
51
0
0
ARC
8
NT_XE
10
2090
20
715
30
0
40
260
50
0
51
90
0
ARC
8
NT_XE
10
-2090
20
715
30
0
40
260
50
90
51
180
0
ARC
8
NT_XE
10
-2090
20
-715
30
0
40
260
50
180
51
270
0
LINE
8
NT_XE
10
-1550
20
-805
30
0
11
1250
21
-805
31
0
0
LINE
8
NT_XE
10
1450
20
-605
30
0
11
1450
21
605
31
0
0
LINE
8
NT_XE
10
1250
20
805
30
0
11
-1550
21
805
31
0
0
LINE
8
NT_XE
10
-1750
20
605
30
0
11
-1750
21
-605
31
0
0
ARC
8
NT_XE
10
1250
20
-605
30
0
40
200
50
-90
51
0
0
ARC
8
NT_XE
10
1250
20
605
30
0
40
200
50
0
51
90
0
ARC
8
NT_XE
10
-1550
20
605
30
0
40
200
50
90
51
180
0
ARC
8
NT_XE
10
-1550
20
-605
30
0
40
200
50
180
51
270
0
LINE
8
NT_XE
10
-1750
20
-805
30
0
11
-1750
21
805
31
0
0
ARC
8
NT_XE
10
1450
20
0
30
0
40
560
50
-60.16
51
60.16
0
LINE
8
NT_XE
10
-1500
20
-595
30
0
11
900
21
-595
31
0
0
LINE
8
NT_XE
10
-1500
20
595
30
0
11
900
21
595
31
0
0
ENDSEC
0
EOF