<svg viewBox="-860 -1860 1720 3720" xmlns="http://www.w3.org/2000/svg">
  <rect x="-860" y="-1860" width="1720" height="3720" fill="#f7f4ee" />
  <g transform="scale(1,-1)" stroke="#3d3a34" stroke-width="18.75" stroke-linejoin="round" stroke-linecap="round">
    <path d="M-500 -1500 L500 -1500 L500 1500 L-500 1500 Z" fill="none" />
    <line x1="-500" y1="-1250" x2="500" y2="-1250" />
    <line x1="-500" y1="-1000" x2="500" y2="-1000" />
    <line x1="-500" y1="-750" x2="500" y2="-750" />
    <line x1="-500" y1="-500" x2="500" y2="-500" />
    <line x1="-500" y1="-250" x2="500" y2="-250" />
    <line x1="-500" y1="0" x2="500" y2="0" />
    <line x1="-500" y1="250" x2="500" y2="250" />
    <line x1="-500" y1="500" x2="500" y2="500" />
    <line x1="-500" y1="750" x2="500" y2="750" />
    <line x1="-500" y1="1000" x2="500" y2="1000" />
    <line x1="-500" y1="1250" x2="500" y2="1250" />
    <path d="M-380 -1300 L0 -1100 L-380 -900" fill="none" />
  </g>
</svg>
